<svg xmlns="http://www.w3.org/2000/svg" xmlns:xlink="http://www.w3.org/1999/xlink" width="342" height="171" viewBox="0 0 342 171">
    <defs>
        <linearGradient id="whexxsguhc" x1="50%" x2="50%" y1="0%" y2="100%">
            <stop offset="0%" stop-color="#00EFFF"/>
            <stop offset="100%" stop-color="#2A1E9D"/>
        </linearGradient>
        <rect id="xig2qfhf1a" width="342" height="171" x="0" y="0" rx="2"/>
    </defs>
    <g fill="none" fill-rule="evenodd">
        <g>
            <g>
                <g transform="translate(-16 -448) translate(16 416) translate(0 32)">
                    <mask id="tsf4997yzb" fill="#fff">
                        <use xlink:href="#xig2qfhf1a"/>
                    </mask>
                    <use fill="#2A1E9D" xlink:href="#xig2qfhf1a"/>
                    <path stroke="url(#whexxsguhc)" d="M47.499 77.017V61.875H10.556v-66.39H-4.45v81.532H47.5h-.001zm59.116 0V61.875H72.42V43.822h30.717V28.68H72.42V10.627h34.195V-4.515H57.352v81.532h49.263zm46.944 0v-66.39h22.024V-4.515h-59.116v15.142h22.024v66.39h15.068zM197.327-9.89l7.814-15.231h-17.495L182.75-9.891h14.578zm271.628 86.908c2.402 0 4.67-.466 6.8-1.398 2.131-.931 3.97-2.174 5.52-3.727 1.55-1.552 2.79-3.397 3.72-5.532.929-2.135 1.394-4.407 1.394-6.814v-10.6c0-3.416-1.027-6.464-3.08-9.142-2.053-2.68-4.707-4.485-7.961-5.417l-244.05-9.085c-1.395-.387-2.091-1.32-2.091-2.795v-6.639c0-1.476.503-2.717 1.51-3.727 1.007-1.01 2.247-1.514 3.719-1.514H466.05c1.473 0 2.712.504 3.72 1.514 1.007 1.01 1.51 2.251 1.51 3.727v8.736h15.109V12.956c0-2.407-.466-4.678-1.395-6.814-.93-2.135-2.17-3.98-3.719-5.532-1.55-1.553-3.39-2.795-5.52-3.727-2.13-.932-4.398-1.398-6.799-1.398H231.531c-2.402 0-4.669.466-6.798 1.398-2.132.932-3.972 2.174-5.522 3.727-1.55 1.553-2.789 3.397-3.718 5.532-.93 2.136-1.395 4.407-1.395 6.814v10.6c0 3.416 1.026 6.464 3.08 9.143 2.052 2.678 4.706 4.484 7.96 5.416l244.05 9.085c1.395.388 2.092 1.32 2.092 2.795v6.64c0 1.475-.503 2.717-1.51 3.726-1.008 1.01-2.247 1.514-3.72 1.514H234.436c-1.472 0-2.712-.504-3.72-1.514-1.006-1.01-1.51-2.251-1.51-3.727v-8.736h-15.108v11.648c0 2.407.465 4.679 1.395 6.814.93 2.135 2.169 3.98 3.718 5.532 1.55 1.553 3.39 2.796 5.52 3.727 2.131.932 4.398 1.398 6.799 1.398h237.426zM9.79 173.78V146.41h25.617c2.406 0 4.676-.466 6.812-1.398 2.134-.932 3.978-2.174 5.53-3.727 1.553-1.553 2.795-3.397 3.727-5.532.931-2.136 1.397-4.407 1.397-6.814h0v-19.219c0-2.407-.466-4.678-1.397-6.813-.932-2.135-2.174-3.98-3.726-5.533-1.553-1.552-3.397-2.795-5.531-3.727-2.136-.932-4.406-1.398-6.812-1.398h0-40.754v81.532H9.79zm23.545-43.006H10.776v-24.19h22.56c1.466 0 2.7.51 3.703 1.534 1.002 1.023 1.504 2.282 1.504 3.776h0v13.57c0 1.495-.502 2.753-1.505 3.777-1.002 1.022-2.236 1.533-3.702 1.533h0zm158.37 43.006V158.64H80.468v-66.39H65.413v81.531h126.293zm24.856 0l4.99-15.141h28.085l4.991 15.141h15.899l-27.04-81.532h-15.899l-26.924 81.532h15.898zm28.886-31.358h-18.81l9.405-27.775 9.405 27.775zm110.04 31.358v-34.709l25.21-46.823h-65.3l-15.726 29.701-15.612-29.7h-17.115l25.326 46.822v34.71h63.217z" mask="url(#tsf4997yzb)"/>
                </g>
            </g>
        </g>
    </g>
</svg>
