<svg xmlns="http://www.w3.org/2000/svg" xmlns:xlink="http://www.w3.org/1999/xlink" width="375" height="375" viewBox="0 0 375 375">
    <defs>
        <linearGradient id="dv44aie12b" x1="50%" x2="50%" y1="0%" y2="100%">
            <stop offset="0%" stop-color="#00EFFF"/>
            <stop offset="100%" stop-color="#00EFFF" stop-opacity=".25"/>
        </linearGradient>
        <path id="27q0mudcda" d="M0.771 46L375.771 0 375.771 375 0.771 375z"/>
    </defs>
    <g fill="none" fill-rule="evenodd">
        <g>
            <g>
                <g transform="translate(0 -437) translate(-1 437) translate(.229)">
                    <mask id="ogkewf2v8c" fill="#fff">
                        <use xlink:href="#27q0mudcda"/>
                    </mask>
                    <use fill="#2A1E9D" xlink:href="#27q0mudcda"/>
                    <path stroke="url(#dv44aie12b)" d="M116.5 143.98v-16.9H75.256v-74.1H58.5v91h58zm66 0v-16.9h-38.176v-20.15h34.294v-16.9h-34.294V69.88H182.5v-16.9h-55v91h55zm52.412 0v-74.1H259.5v-16.9h-66v16.9h24.588v74.1h16.824zm48.864-97l8.724-17h-19.531l-5.469 17h16.276zm303.261 97c2.682 0 5.212-.52 7.59-1.56 2.38-1.04 4.434-2.427 6.164-4.16 1.73-1.733 3.114-3.792 4.152-6.175 1.038-2.383 1.557-4.918 1.557-7.605v-11.83c0-3.813-1.146-7.215-3.438-10.205-2.293-2.99-5.255-5.005-8.889-6.045l-272.47-10.14c-1.557-.433-2.335-1.473-2.335-3.12v-7.41c0-1.647.562-3.033 1.687-4.16 1.124-1.127 2.508-1.69 4.152-1.69h258.586c1.644 0 3.028.563 4.152 1.69 1.125 1.127 1.687 2.513 1.687 4.16v9.75H606.5v-13c0-2.687-.519-5.222-1.557-7.605-1.038-2.383-2.422-4.442-4.152-6.175-1.73-1.733-3.785-3.12-6.163-4.16-2.38-1.04-4.91-1.56-7.59-1.56H321.962c-2.682 0-5.212.52-7.59 1.56-2.38 1.04-4.434 2.427-6.164 4.16-1.73 1.733-3.114 3.792-4.152 6.175-1.038 2.383-1.557 4.918-1.557 7.605v11.83c0 3.813 1.146 7.215 3.438 10.205 2.293 2.99 5.255 5.005 8.889 6.045l272.47 10.14c1.557.433 2.335 1.473 2.335 3.12v7.41c0 1.647-.562 3.033-1.687 4.16-1.124 1.127-2.508 1.69-4.152 1.69H325.207c-1.644 0-3.028-.563-4.152-1.69-1.125-1.127-1.687-2.513-1.687-4.16v-9.75H302.5v13c0 2.687.519 5.222 1.557 7.605 1.038 2.383 2.422 4.442 4.152 6.175 1.73 1.733 3.785 3.12 6.163 4.16 2.38 1.04 4.91 1.56 7.59 1.56h265.075zM74.4 251.98v-30.55H103c2.687 0 5.222-.52 7.605-1.56s4.442-2.427 6.175-4.16c1.733-1.733 3.12-3.792 4.16-6.175s1.56-4.918 1.56-7.605h0v-21.45c0-2.687-.52-5.222-1.56-7.605s-2.427-4.442-4.16-6.175c-1.733-1.733-3.792-3.12-6.175-4.16s-4.918-1.56-7.605-1.56h0-45.5v91h16.9zm26.287-48H75.5v-27h25.188c1.636 0 3.013.57 4.133 1.712s1.679 2.547 1.679 4.215h0v15.146c0 1.669-.56 3.073-1.68 4.215-1.119 1.141-2.496 1.712-4.132 1.712h0zm176.813 48v-16.9H153.307v-74.1H136.5v91h141zm27.75 0l5.572-16.9h31.356l5.571 16.9H365.5l-30.19-91h-17.75l-30.06 91h17.75zm32.25-35h-21l10.5-31 10.5 31zm122.854 35v-38.74l28.146-52.26h-72.903l-17.56 33.15-17.429-33.15H361.5l28.275 52.26v38.74h70.58z" mask="url(#ogkewf2v8c)" opacity=".5"/>
                </g>
            </g>
        </g>
    </g>
</svg>
