<svg xmlns="http://www.w3.org/2000/svg" width="65" height="65" viewBox="0 0 65 65">
    <defs>
        <filter id="lemxp0o7ya">
            <feColorMatrix in="SourceGraphic" values="0 0 0 0 1.000000 0 0 0 0 1.000000 0 0 0 0 1.000000 0 0 0 1.000000 0"/>
        </filter>
    </defs>
    <g fill="none" fill-rule="evenodd">
        <g filter="url(#lemxp0o7ya)" transform="translate(-368 -155)">
            <g>
                <g fill="#000" fill-rule="nonzero">
                    <path d="M58.333 11.647C44.046-7.908 13.293-1.503 7.568 21.601l-3.43-6.576c-.55-1.038-1.836-1.435-2.874-.887-1.038.549-1.435 1.835-.887 2.874l6.607 12.524c.454.842 1.415 1.277 2.348 1.062.18-.053.358-.117.53-.191L22.44 23.82c1.041-.563 1.429-1.864.866-2.905-.564-1.042-1.864-1.43-2.906-.866l-9.135 4.822C14.452 3.702 42.07-3.32 54.902 14.154c11.801 15.743.096 38.868-19.598 38.698-5.176.01-10.218-1.643-14.383-4.717-.61-.477-1.43-.586-2.143-.282-.713.303-1.204.97-1.281 1.74-.078.771.269 1.523.906 1.963 4.89 3.618 10.817 5.562 16.9 5.545 23.136.202 36.892-26.96 23.03-45.454z" transform="translate(368.5 155.5) translate(0 3.272)"/>
                </g>
            </g>
        </g>
    </g>
</svg>
