<svg xmlns="http://www.w3.org/2000/svg" width="20" height="20" viewBox="0 0 20 20">
    <defs>
        <filter id="nwc1ej6b7a">
            <feColorMatrix in="SourceGraphic" values="0 0 0 0 1.000000 0 0 0 0 1.000000 0 0 0 0 1.000000 0 0 0 1.000000 0"/>
        </filter>
    </defs>
    <g fill="none" fill-rule="evenodd">
        <g>
            <g filter="url(#nwc1ej6b7a)" transform="translate(-337 -306) translate(-.7)">
                <g fill="#000" fill-rule="nonzero">
                    <path d="M10 20C4.486 20 0 15.514 0 10S4.486 0 10 0s10 4.486 10 10-4.486 10-10 10zm0-18.75c-4.825 0-8.75 3.925-8.75 8.75s3.925 8.75 8.75 8.75 8.75-3.925 8.75-8.75S14.825 1.25 10 1.25z" transform="translate(337.7 306)"/>
                    <path d="M10 15.781c-.345 0-.625-.274-.625-.61V4.985c0-.337.28-.611.625-.611s.625.274.625.611V15.17c0 .337-.28.611-.625.611z" transform="translate(337.7 306)"/>
                    <path d="M10.077 15.781c-.16 0-.322-.06-.444-.18l-3.355-3.296c-.246-.241-.246-.633 0-.874s.644-.241.89 0l2.91 2.858 2.91-2.858c.246-.241.645-.241.89 0 .246.241.246.633 0 .874L10.523 15.6c-.124.121-.285.181-.446.181z" transform="translate(337.7 306)"/>
                </g>
            </g>
        </g>
    </g>
</svg>
