<svg xmlns="http://www.w3.org/2000/svg" width="21" height="20" viewBox="0 0 21 20">
    <defs>
        <filter id="i4xcguueaa">
            <feColorMatrix in="SourceGraphic" values="0 0 0 0 0.666667 0 0 0 0 0.709804 0 0 0 0 0.772549 0 0 0 1.000000 0"/>
        </filter>
    </defs>
    <g fill="none" fill-rule="evenodd">
        <g>
            <g>
                <g>
                    <g filter="url(#i4xcguueaa)" transform="translate(-175 -740) translate(-1) translate(.501 729) translate(125.5)">
                        <g>
                            <path fill="#000" d="M13.006 3.021c5.514 0 9.984 4.47 9.984 9.985 0 5.42-4.32 9.832-9.705 9.98l-.28.004c-5.513 0-9.984-4.47-9.984-9.984s4.47-9.985 9.985-9.985zm0 1.085c-.358 0-.71.021-1.057.062L9.903 5.516l-.62 2.202.003.008-1.34.598-1.313-.976h-.497c-1.268 1.538-2.03 3.509-2.03 5.658 0 1.617.432 3.134 1.186 4.442h1.34l1.34-1.219.006-.018 1.575.802-.005.013.22 2.562 1.798 1.866 3.056.305.127-.025 2.49-.939 1.638-1.65.62-2.278v-.005l1.27-.566.005.022c.08.25.152.457.22.622.584-1.187.913-2.522.913-3.934 0-1.629-.437-3.155-1.201-4.468-.05.138-.1.308-.154.509l-.002.006-1.165-.519.008-.028-.779-2.025-1.627-1.438-.205-.1-1.429-.525c-.504-.137-1.026-.231-1.562-.278l-.285-.02c-.165-.01-.331-.014-.498-.014zM9.89 9.167l.012.028 1.773 1.58 2.322.835h.007l.03 1.7-2.065.77-1.718 1.535-1.744-.888.01-.02.476-2.456-.466-2.458-.007-.016 1.37-.61zm9.201.623l1.31.583-.001.008-.33 2.334.476 2.277.002.016-1.324.59-.001-.01-1.415-1.64-2.213-.718-.027-1.529.008.001 2.128-.567 1.388-1.343V9.79z" transform="translate(47.195 8) rotate(-16 13.006 13.006)"/>
                        </g>
                    </g>
                </g>
            </g>
        </g>
    </g>
</svg>
