<svg xmlns="http://www.w3.org/2000/svg" width="20" height="20" viewBox="0 0 20 20">
    <defs>
        <filter id="lxp3jmwyya">
            <feColorMatrix in="SourceGraphic" values="0 0 0 0 1.000000 0 0 0 0 1.000000 0 0 0 0 1.000000 0 0 0 1.000000 0"/>
        </filter>
    </defs>
    <g fill="none" fill-rule="evenodd">
        <g filter="url(#lxp3jmwyya)" transform="translate(-339 -56)">
            <g>
                <g fill="#000" fill-rule="nonzero">
                    <path d="M1.602 12.5c-.17 0-.34-.065-.47-.195-.26-.26-.26-.68 0-.94L11.522.976c.259-.26.68-.26.94 0 .26.26.26.68 0 .94l-10.39 10.39c-.13.129-.3.194-.47.194z" transform="translate(339 56) translate(1.406 1.406)"/>
                    <path d="M.662 17.188c-.046 0-.093-.005-.14-.015-.356-.077-.584-.43-.507-.787l1.021-4.769c.077-.358.43-.585.785-.509.357.077.585.43.508.787l-1.021 4.769c-.067.31-.341.523-.646.523zM5.352 16.25c-.17 0-.34-.065-.47-.195-.26-.26-.26-.68 0-.94l10.39-10.389c.259-.26.68-.26.94 0 .26.26.26.68 0 .94l-10.39 10.39c-.13.13-.3.194-.47.194z" transform="translate(339 56) translate(1.406 1.406)"/>
                    <path d="M.662 17.188c-.306 0-.58-.213-.647-.523-.077-.357.15-.709.508-.785l4.77-1.022c.357-.075.71.151.786.508.076.357-.151.708-.509.785L.801 17.173c-.046.01-.093.015-.14.015zM13.878 7.656c-.167 0-.334-.063-.461-.191L9.723 3.77c-.256-.255-.256-.668 0-.923.254-.256.668-.256.923 0L14.34 6.54c.255.256.255.669 0 .924-.127.128-.295.191-.462.191zM15.773 5.781c-.167 0-.335-.064-.464-.192-.256-.256-.256-.671 0-.928.365-.365.566-.86.566-1.391 0-.532-.2-1.027-.566-1.392-.365-.365-.86-.566-1.391-.566-.532 0-1.027.201-1.392.566-.256.257-.67.257-.928 0-.256-.256-.256-.671 0-.927C12.211.338 13.035 0 13.918 0c.882 0 1.706.338 2.319.95.613.613.95 1.437.95 2.32 0 .883-.337 1.706-.95 2.319-.128.128-.296.192-.464.192z" transform="translate(339 56) translate(1.406 1.406)"/>
                </g>
            </g>
        </g>
    </g>
</svg>
