<svg xmlns="http://www.w3.org/2000/svg" width="20" height="20" viewBox="0 0 20 20">
    <defs>
        <filter id="8zza7bccua">
            <feColorMatrix in="SourceGraphic" values="0 0 0 0 1.000000 0 0 0 0 1.000000 0 0 0 0 1.000000 0 0 0 1.000000 0"/>
        </filter>
    </defs>
    <g fill="none" fill-rule="evenodd">
        <g>
            <g filter="url(#8zza7bccua)" transform="translate(-337 -306) translate(-.7)">
                <g fill="#000" fill-rule="nonzero">
                    <path d="M10 0C4.486 0 0 4.486 0 10s4.486 10 10 10 10-4.486 10-10S15.514 0 10 0zm3.722 12.405l-3.353 3.348c-.056.056-.122.1-.194.132l-.01.004-.04.015-.018.006-.04.01-.022.005-.04.006-.022.003c-.02.002-.041.004-.062.004-.02 0-.042 0-.062-.004l-.023-.003-.04-.006c-.007 0-.015-.004-.023-.006s-.025-.005-.037-.009l-.02-.007-.039-.014-.017-.008-.039-.018-.015-.01-.037-.022-.023-.016-.025-.02-.05-.044-3.35-3.346c-.245-.246-.245-.644.002-.89.247-.245.646-.244.891.002l2.28 2.276V4.847c0-.347.281-.628.629-.628.347 0 .628.28.628.628v8.948l2.282-2.278c.245-.245.644-.245.89 0 .245.245.245.643-.001.888z" transform="translate(337.7 306)"/>
                </g>
            </g>
        </g>
    </g>
</svg>
