<svg xmlns="http://www.w3.org/2000/svg" width="21" height="20" viewBox="0 0 21 20">
    <defs>
        <filter id="j9qijdl5ha">
            <feColorMatrix in="SourceGraphic" values="0 0 0 0 0.666667 0 0 0 0 0.709804 0 0 0 0 0.772549 0 0 0 1.000000 0"/>
        </filter>
    </defs>
    <g fill="none" fill-rule="evenodd">
        <g>
            <g>
                <g>
                    <g filter="url(#j9qijdl5ha)" transform="translate(-49 -740) translate(-1) translate(0 729)">
                        <g>
                            <path fill="#000" d="M18.493 4.245L11.35.345c-.843-.46-1.857-.46-2.7 0l-7.143 3.9C.581 4.749.002 5.73 0 6.797V17.1C0 18.7 1.28 20 2.857 20h14.286C18.72 20 20 18.701 20 17.1V6.797c-.001-1.067-.58-2.048-1.507-2.552zM12.03 18.594H7.812v-4.375c0-1.208.945-2.188 2.11-2.188s2.11.98 2.11 2.188v4.375zm6.562-1.6c0 .797-.64 1.444-1.432 1.444h-3.58v-4.332c0-1.994-1.604-3.61-3.581-3.61-1.977 0-3.58 1.616-3.58 3.61v4.332H2.838c-.791 0-1.433-.647-1.433-1.444V6.734c-.007-.523.267-1.009.716-1.27L9.284 1.58c.424-.232.936-.232 1.36 0l7.233 3.862c.456.265.731.762.716 1.292v10.26z" transform="translate(50.195 11)"/>
                        </g>
                    </g>
                </g>
            </g>
        </g>
    </g>
</svg>
