<svg xmlns="http://www.w3.org/2000/svg" width="32" height="33" viewBox="0 0 32 33">
    <defs>
        <filter id="wh75yho2ya">
            <feColorMatrix in="SourceGraphic" values="0 0 0 0 1.000000 0 0 0 0 1.000000 0 0 0 0 1.000000 0 0 0 1.000000 0"/>
        </filter>
    </defs>
    <g fill="none" fill-rule="evenodd" opacity=".5">
        <g>
            <g>
                <g filter="url(#wh75yho2ya)" transform="translate(-52 -370) translate(0 88) translate(28 257.622)">
                    <g>
                        <g fill="#000" fill-rule="nonzero" transform="translate(24 24.878) translate(0 2.017)">
                            <path d="M28.105 4.267h-4.58l-.534-1.6C22.464 1.073 20.973-.003 19.295 0h-6.59C11.027-.001 9.538 1.074 9.01 2.667l-.534 1.6h-4.58C1.744 4.269.001 6.012 0 8.162v15.68c.005 2.149 1.747 3.889 3.895 3.891H28.11c2.149-.004 3.889-1.746 3.891-3.895V8.158c-.005-2.149-1.747-3.889-3.895-3.891zm1.762 19.57c-.002.974-.79 1.762-1.762 1.763H3.895c-.972-.001-1.76-.79-1.762-1.762V8.158c.004-.971.791-1.757 1.762-1.758h5.35c.459 0 .866-.294 1.011-.73l.778-2.332c.24-.72.913-1.205 1.671-1.205h6.59c.759 0 1.433.485 1.671 1.206l.778 2.331c.145.436.552.73 1.011.73h5.35c.972.001 1.76.79 1.762 1.762v15.676z"/>
                            <path d="M16 7.467c-4.418 0-8 3.581-8 8 0 4.418 3.582 8 8 8s8-3.582 8-8c-.005-4.417-3.584-7.996-8-8zm0 13.866c-3.24 0-5.867-2.626-5.867-5.866 0-3.24 2.627-5.867 5.867-5.867s5.867 2.627 5.867 5.867c-.004 3.238-2.628 5.863-5.867 5.866z"/>
                            <circle cx="26.667" cy="9.6" r="1.067"/>
                        </g>
                    </g>
                </g>
            </g>
        </g>
    </g>
</svg>
