<svg xmlns="http://www.w3.org/2000/svg" width="20" height="20" viewBox="0 0 20 20">
    <defs>
        <filter id="hzuvc9c94a">
            <feColorMatrix in="SourceGraphic" values="0 0 0 0 1.000000 0 0 0 0 1.000000 0 0 0 0 1.000000 0 0 0 1.000000 0"/>
        </filter>
    </defs>
    <g fill="none" fill-rule="evenodd">
        <g filter="url(#hzuvc9c94a)" transform="translate(-17 -56)">
            <g fill="#000" fill-rule="nonzero">
                <path d="M18.045 7.333h-.085c-.256-.002-.484-.16-.576-.4-.096-.23-.044-.496.133-.673l.061-.06c.761-.765.761-2.001 0-2.765l-1.007-1.007c-.764-.762-2-.762-2.764 0l-.061.06c-.183.177-.452.227-.686.13-.235-.097-.389-.324-.393-.577v-.086C12.666.875 11.79 0 10.712 0H9.288c-1.08.001-1.954.876-1.955 1.955v.086c-.006.251-.16.475-.393.572-.233.096-.5.046-.683-.127l-.057-.06c-.764-.763-2-.763-2.764 0l-1.01 1.006c-.762.764-.762 2 0 2.765l.06.06c.179.183.228.457.123.69-.093.233-.318.385-.569.386h-.085C.875 7.334 0 8.21 0 9.288v1.424c.001 1.08.876 1.954 1.955 1.955h.085c.256.002.484.16.576.4.096.23.044.496-.133.673l-.061.06c-.761.765-.761 2.001 0 2.765l1.007 1.006c.763.763 2 .763 2.764 0l.061-.06c.183-.179.456-.228.69-.124.233.094.385.318.386.569v.086c0 .52.206 1.018.573 1.385S8.77 20 9.288 20h1.424c1.08-.001 1.954-.876 1.955-1.955v-.086c.006-.251.16-.475.393-.572.233-.096.5-.046.683.127l.06.06c.764.763 2 .763 2.764 0l1.008-1.005c.761-.765.761-2 0-2.765l-.061-.06c-.179-.184-.228-.457-.123-.69.093-.233.318-.386.569-.387h.085c1.08-.001 1.954-.876 1.955-1.955V9.288c-.001-1.08-.876-1.954-1.955-1.955zm.622 3.379c0 .343-.279.621-.622.621h-.085c-.79.007-1.501.486-1.804 1.217-.303.73-.14 1.571.415 2.135l.06.061c.243.243.243.636 0 .88l-1.007 1.005c-.243.243-.636.243-.879 0l-.06-.06c-.564-.554-1.405-.717-2.135-.415-.73.303-1.21 1.013-1.217 1.803v.086c0 .343-.278.621-.621.622H9.288c-.343 0-.621-.279-.621-.622v-.086c-.004-.792-.483-1.505-1.215-1.808-.732-.303-1.574-.137-2.137.42l-.061.061c-.243.242-.636.242-.879 0L3.37 15.626c-.243-.243-.243-.636 0-.88l.06-.06c.555-.564.719-1.405.416-2.136-.303-.732-1.014-1.21-1.805-1.217h-.085c-.343 0-.621-.278-.622-.621V9.288c0-.343.279-.621.622-.621h.085c.79-.007 1.501-.486 1.804-1.217.303-.73.14-1.571-.415-2.135l-.06-.061c-.243-.243-.243-.636 0-.879l1.006-1.007c.243-.243.636-.243.879 0l.06.06c.564.555 1.405.718 2.135.416C8.18 3.54 8.66 2.83 8.667 2.04v-.086c0-.343.278-.621.621-.622h1.424c.343 0 .621.279.621.622v.086c.007.79.486 1.5 1.217 1.803.73.303 1.571.139 2.135-.415l.061-.061c.243-.243.636-.243.879 0l1.006 1.007c.243.243.243.636 0 .879l-.06.06c-.555.565-.718 1.406-.415 2.137.303.73 1.013 1.21 1.804 1.216h.085c.343 0 .621.278.622.621v1.424z" transform="translate(17 56)"/>
                <path d="M10 5.333c-2.577 0-4.667 2.09-4.667 4.667s2.09 4.667 4.667 4.667 4.667-2.09 4.667-4.667c-.003-2.576-2.09-4.664-4.667-4.667zm0 8c-1.84 0-3.333-1.492-3.333-3.333 0-1.84 1.492-3.333 3.333-3.333 1.84 0 3.333 1.492 3.333 3.333-.002 1.84-1.493 3.331-3.333 3.333z" transform="translate(17 56)"/>
            </g>
        </g>
    </g>
</svg>
