<svg xmlns="http://www.w3.org/2000/svg" width="21" height="20" viewBox="0 0 21 20">
    <defs>
        <filter id="k738fj1hoa">
            <feColorMatrix in="SourceGraphic" values="0 0 0 0 0.666667 0 0 0 0 0.709804 0 0 0 0 0.772549 0 0 0 1.000000 0"/>
        </filter>
    </defs>
    <g fill="none" fill-rule="evenodd">
        <g>
            <g>
                <g>
                    <g filter="url(#k738fj1hoa)" transform="translate(-299 -844) translate(-1) translate(0 833) translate(250.002)">
                        <g>
                            <path fill="#000" d="M11.563 11.875H8.28c-2.715 0-5.394 1.23-7.186 3.868V20H18.75v-4.257c-1.79-2.634-4.468-3.868-7.187-3.868m.07 1.563c2.226 0 4.181.992 5.555 2.807v2.192H2.813v-2.192c1.373-1.815 3.329-2.808 5.553-2.808h3.268M10 0C7.066 0 4.687 2.379 4.687 5.313c0 2.933 2.379 5.312 5.313 5.312 2.934 0 5.313-2.379 5.313-5.312C15.313 2.379 12.934 0 10 0m0 1.563c2.068 0 3.75 1.647 3.75 3.672 0 2.024-1.682 3.671-3.75 3.671S6.25 7.26 6.25 5.235c0-2.025 1.682-3.673 3.75-3.673" transform="translate(50.195 11)"/>
                        </g>
                    </g>
                </g>
            </g>
        </g>
    </g>
</svg>
