<svg xmlns="http://www.w3.org/2000/svg" width="375" height="162" viewBox="0 0 375 162">
    <defs>
        <linearGradient id="4lduckss6a" x1="50%" x2="50%" y1="0%" y2="100%">
            <stop offset="0%" stop-color="#00EFFF"/>
            <stop offset="100%" stop-color="#2A1E9D"/>
        </linearGradient>
    </defs>
    <g fill="none" fill-rule="evenodd" opacity=".5">
        <g stroke="url(#4lduckss6a)" transform="translate(0 -63)">
            <g>
                <path d="M43 83V70.743H13.131V17H1v66h42zm46 0V70.743H61.929V56.129h24.318V43.87H61.929V29.257H89V17H50v66h39zm39.49 0V29.257H146V17H99v12.257h17.51V83h11.98zm34.578-70L169 1h-13.282L152 13h11.068zm217.91 70c1.932 0 3.756-.377 5.469-1.131 1.714-.755 3.194-1.76 4.44-3.018 1.247-1.256 2.244-2.75 2.991-4.478.748-1.728 1.122-3.567 1.122-5.516v-8.58c0-2.765-.826-5.233-2.477-7.401-1.652-2.169-3.786-3.63-6.403-4.385l-196.286-7.354c-1.122-.314-1.682-1.068-1.682-2.263V33.5c0-1.195.404-2.2 1.214-3.017.81-.818 1.808-1.226 2.991-1.226h186.285c1.184 0 2.181.408 2.991 1.226.81.817 1.215 1.822 1.215 3.017v7.071H395v-9.428c0-1.949-.375-3.788-1.122-5.516-.747-1.728-1.744-3.222-2.99-4.478-1.247-1.257-2.727-2.263-4.441-3.018-1.713-.754-3.537-1.131-5.468-1.131H190.021c-1.932 0-3.755.377-5.468 1.131-1.714.755-3.194 1.76-4.44 3.018-1.247 1.256-2.244 2.75-2.991 4.478-.748 1.728-1.122 3.567-1.122 5.516v8.58c0 2.765.826 5.233 2.477 7.401 1.65 2.169 3.785 3.63 6.403 4.385l196.286 7.354c1.121.314 1.682 1.068 1.682 2.263V66.5c0 1.195-.404 2.2-1.215 3.017-.81.818-1.807 1.226-2.991 1.226H192.357c-1.183 0-2.18-.408-2.99-1.226-.81-.817-1.215-1.822-1.215-3.017v-7.071H176v9.428c0 1.949.374 3.788 1.122 5.516.747 1.728 1.744 3.222 2.99 4.478 1.247 1.257 2.727 2.263 4.44 3.018 1.714.754 3.538 1.131 5.468 1.131H380.98zM12.22 161v-22.157H32.9c1.942 0 3.775-.377 5.499-1.132 1.723-.754 3.211-1.76 4.465-3.017 1.253-1.257 2.256-2.75 3.008-4.478.752-1.729 1.128-3.567 1.128-5.516h0v-15.557c0-1.949-.376-3.788-1.128-5.516-.752-1.728-1.755-3.222-3.008-4.478-1.254-1.257-2.742-2.263-4.465-3.018C36.675 95.377 34.842 95 32.9 95h0H0v66h12.22zm18.654-35H13v-18h17.875c1.16 0 2.139.38 2.933 1.141.795.762 1.192 1.698 1.192 2.81h0v10.098c0 1.112-.397 2.048-1.192 2.81-.794.76-1.772 1.141-2.933 1.141h0-.001zM159 161v-12.257H69.158V95H57v66h102zm19.516 0l3.93-12.257h22.109L208.484 161H221l-21.287-66h-12.517L166 161h12.516zM202 137h-14l7-24 7 24zm87.832 24v-28.097L310 95h-52.238l-12.581 24.043L232.69 95H219l20.26 37.903V161h50.572z" transform="translate(-4 63)"/>
            </g>
        </g>
    </g>
</svg>
