<svg xmlns="http://www.w3.org/2000/svg"
    xmlns:xlink="http://www.w3.org/1999/xlink" width="80" height="64" viewBox="0 0 80 64">
    <defs>
        <linearGradient id="79x0rbh7zb" x1="50%" x2="50%" y1="0%" y2="100%">
            <stop offset="0%" stop-color="#00EFFF"/>
            <stop offset="100%" stop-color="#2A1E9D"/>
        </linearGradient>
        <filter id="2yv8jm8x0d">
            <feColorMatrix in="SourceGraphic" values="0 0 0 0 1.000000 0 0 0 0 1.000000 0 0 0 0 1.000000 0 0 0 1.000000 0"/>
        </filter>
        <rect id="xhj0t9p34a" width="80" height="64" x="0" y="0" rx="2"/>
    </defs>
    <g fill="none" fill-rule="evenodd">
        <g>
            <g>
                <g>
                    <g transform="translate(-16 -826) translate(0 418) translate(0 400) translate(16 8)">
                        <mask id="jpab8x7jgc" fill="#fff">
                            <use xlink:href="#xhj0t9p34a"/>
                        </mask>
                        <use fill="#2A1E9D" xlink:href="#xhj0t9p34a"/>
                        <path stroke="url(#79x0rbh7zb)" d="M12 19v-3.714H2.755V-1H-1v20h13zm15 0v-3.714h-8.33v-4.429h7.483V7.143H18.67V2.714H27V-1H15v20h12zm12.412 0V2.714H45V-1H30v3.714h5.588V19h3.824zM49.906-2L52-6h-4.688L46-2h3.906zm68.676 21c.609 0 1.183-.114 1.723-.343.54-.228 1.007-.533 1.4-.914.392-.381.706-.834.942-1.357.235-.524.353-1.081.353-1.672v-2.6c0-.838-.26-1.585-.78-2.243-.52-.657-1.193-1.1-2.018-1.328L58.36 6.314c-.354-.095-.53-.323-.53-.685V4c0-.362.127-.667.382-.914.256-.248.57-.372.943-.372h58.692c.373 0 .687.124.943.372.255.247.382.552.382.914v2.143H123V3.286c0-.59-.118-1.148-.353-1.672-.236-.523-.55-.976-.943-1.357-.392-.38-.859-.686-1.399-.914-.54-.229-1.114-.343-1.723-.343H58.418c-.61 0-1.183.114-1.723.343-.54.228-1.007.533-1.4.914-.392.381-.706.834-.942 1.357-.235.524-.353 1.081-.353 1.672v2.6c0 .838.26 1.585.78 2.243.52.657 1.193 1.1 2.018 1.328l61.843 2.229c.354.095.53.323.53.685V14c0 .362-.127.667-.382.914-.256.248-.57.372-.943.372H59.154c-.373 0-.687-.124-.943-.372-.255-.247-.382-.552-.382-.914v-2.143H54v2.857c0 .59.118 1.148.353 1.672.236.523.55.976.943 1.357.392.38.859.686 1.399.914.54.229 1.114.343 1.722.343h60.165zM2.9 44v-6.714h6.6c.62 0 1.205-.115 1.755-.343.55-.229 1.025-.534 1.425-.914.4-.381.72-.834.96-1.358.24-.523.36-1.08.36-1.671h0v-4.714c0-.59-.12-1.148-.36-1.672-.24-.523-.56-.976-.96-1.357-.4-.38-.875-.686-1.425-.914C10.705 24.114 10.12 24 9.5 24h0H-1v20h3.9zm5.787-11H3v-6h5.687c.37 0 .681.127.934.38.253.254.379.566.379.937h0v3.366c0 .37-.126.683-.38.937-.252.253-.563.38-.933.38h0zM49 44v-3.714H20.814V24H17v20h32zm6.096 0l1.286-3.714h7.236L64.904 44H69l-6.967-20h-4.096L51 44h4.096zM62 36h-5l2.5-7 2.5 7zm28.573 8v-8.514L97 24H80.353l-4.01 7.286L72.363 24H68l6.456 11.486V44h16.117z" mask="url(#jpab8x7jgc)" opacity=".5"/>
                        <g filter="url(#2yv8jm8x0d)">
                            <g mask="url(#jpab8x7jgc)">
                                <g>
                                    <g>
                                        <path fill="#fff" fill-rule="nonzero" d="M14.094 9.28c-.527-1.034-1.783-1.447-2.813-.937-.479-.94-1.574-1.385-2.57-1.039V2.998C8.71 1.85 7.789.89 6.655.86 5.466.826 4.482 1.778 4.482 2.97V13.8l-.826-.865c-.793-.83-2.12-.889-2.96-.13-.885.8-.93 2.163-.114 3.02l4.747 5.063C5.991 21.595 6.926 22 7.894 22h5.726c1.938 0 3.515-1.577 3.515-3.516v-7.312c0-1.558-1.643-2.584-3.041-1.892zm1.635 9.204c0 1.163-.946 2.11-2.11 2.11H7.895c-.58 0-1.142-.243-1.539-.667l-4.754-5.07c-.271-.285-.258-.74.038-1.008.28-.252.728-.226 1 .058l2.037 2.134c.437.457 1.212.147 1.212-.486V2.97c0-.395.328-.714.728-.703.38.01.689.339.689.732 0 7.737-.014 4.23-.014 8.408 0 .39.318.707.71.703.392.004.71-.313.71-.703V9.163c.062-.324.348-.57.69-.57.387 0 .703.316.703.704v2.11c0 .388.315.702.703.702.388 0 .703-.314.703-.703v-1.172c0-.387.316-.703.703-.703.388 0 .703.316.703.703v1.172c0 .389.315.703.704.703.388 0 .703-.314.703-.703v-.234c0-.388.315-.703.703-.703.387 0 .703.315.703.703v7.312z" transform="translate(23 15) translate(10 13)"/>
                                    </g>
                                    <g stroke="#fff" stroke-width="1.5">
                                        <g transform="translate(23 15)">
                                            <circle cx="8" cy="8" r="7.25"/>
                                            <path d="M5.264 7.825L7.059 9.62 10.679 6"/>
                                        </g>
                                        <g transform="translate(23 15) translate(18)">
                                            <circle cx="8" cy="8" r="7.25"/>
                                            <g>
                                                <path d="M0 4.62L4.62 0" transform="translate(5.7 5.7)"/>
                                                <path d="M0 4.62L4.62 0" transform="translate(5.7 5.7) matrix(-1 0 0 1 4.62 0)"/>
                                            </g>
                                        </g>
                                    </g>
                                </g>
                            </g>
                        </g>
                    </g>
                </g>
            </g>
        </g>
    </g>
</svg>
