<svg xmlns="http://www.w3.org/2000/svg" width="174" height="58" viewBox="0 0 174 58">
    <g fill="none" fill-rule="evenodd">
        <g fill="#000">
            <g>
                <g>
                    <path fill-rule="nonzero" d="M67.006 24.964V11.767h4.09V9.82H60.979v1.947h4.09v13.197h1.937zm12.749 0c.416 0 .804-.08 1.162-.238.359-.16.671-.372.937-.639.265-.266.477-.584.635-.952.157-.367.236-.753.236-1.157v-9.173c0-.418-.079-.808-.236-1.168-.158-.36-.37-.674-.635-.941-.266-.267-.578-.48-.937-.638-.358-.16-.746-.238-1.162-.238h-3.96c-.402 0-.786.079-1.152.238-.366.158-.682.37-.947.638-.266.267-.477.58-.635.94-.158.361-.237.75-.237 1.17v9.172c0 .404.08.79.237 1.157.158.368.37.686.635.952.265.267.581.48.947.639.366.158.75.238 1.152.238h3.96zm-.15-1.948h-3.66c-.33 0-.61-.115-.84-.346-.229-.23-.344-.512-.344-.843v-8.87c0-.332.115-.613.345-.844.23-.231.51-.346.84-.346h3.658c.33 0 .61.115.84.346.23.23.344.512.344.844v8.87c0 .331-.115.613-.344.843-.23.231-.51.346-.84.346zm8.142 1.948V13.389l6.78 11.575h2.088V9.82h-1.937v11.574L87.898 9.82H85.81v15.144h1.937zm14.212 0V9.82h-1.937v15.144h1.937zm10.625 0v-6.599h2.54l3.573 6.599h2.195l-4.09-7.572 4.09-7.572h-2.195l-3.573 6.598h-2.54V9.82h-1.937v15.144h1.937zm12.275 0V18.58h3.164l3.078 6.383h2.153l-3.078-6.404c.373-.043.72-.148 1.044-.314.322-.166.602-.382.839-.649s.423-.57.56-.909c.136-.338.204-.703.204-1.092v-2.79c0-.42-.079-.809-.237-1.17-.157-.36-.37-.673-.635-.94-.265-.267-.577-.48-.936-.638-.359-.16-.746-.238-1.162-.238h-6.931v15.144h1.937zm4.843-8.33h-4.843v-4.867h4.843c.33 0 .61.115.84.346.23.23.344.512.344.844v2.487c0 .332-.115.613-.344.844-.23.231-.51.346-.84.346zm12.9 8.33c.416 0 .803-.08 1.162-.238.359-.16.67-.372.936-.639.266-.266.477-.584.635-.952.158-.367.237-.753.237-1.157v-9.173c0-.418-.079-.808-.237-1.168-.158-.36-.37-.674-.635-.941-.265-.267-.577-.48-.936-.638-.359-.16-.746-.238-1.162-.238h-3.96c-.403 0-.786.079-1.152.238-.366.158-.682.37-.947.638-.266.267-.478.58-.635.94-.158.361-.237.75-.237 1.17v9.172c0 .404.079.79.237 1.157.157.368.37.686.635.952.265.267.58.48.947.639.366.158.75.238 1.151.238h3.96zm-.151-1.948h-3.66c-.33 0-.609-.115-.839-.346-.23-.23-.344-.512-.344-.843v-8.87c0-.332.115-.613.344-.844.23-.231.51-.346.84-.346h3.659c.33 0 .61.115.84.346.229.23.344.512.344.844v8.87c0 .331-.115.613-.345.843-.23.231-.509.346-.839.346zm12.921 1.948c.416 0 .804-.08 1.162-.238.36-.16.671-.372.937-.639.265-.266.477-.584.635-.952.157-.367.236-.753.236-1.157v-9.173c0-.418-.079-.808-.236-1.168-.158-.36-.37-.674-.635-.941-.266-.267-.578-.48-.937-.638-.358-.16-.746-.238-1.162-.238h-3.96c-.402 0-.786.079-1.152.238-.366.158-.682.37-.947.638-.266.267-.477.58-.635.94-.158.361-.237.75-.237 1.17v9.172c0 .404.08.79.237 1.157.158.368.37.686.635.952.265.267.581.48.947.639.366.158.75.238 1.152.238h3.96zm-.15-1.948h-3.66c-.33 0-.61-.115-.84-.346-.229-.23-.344-.512-.344-.843v-8.87c0-.332.115-.613.345-.844.23-.231.51-.346.84-.346h3.658c.33 0 .61.115.84.346.23.23.344.512.344.844v8.87c0 .331-.115.613-.344.843-.23.231-.51.346-.84.346zm13.415 1.948c.417 0 .804-.08 1.163-.238.358-.16.67-.372.936-.639.266-.266.477-.584.635-.952.158-.367.237-.753.237-1.157v-2.207c0-.577-.172-1.089-.517-1.536-.344-.447-.789-.75-1.334-.908l-6.006-1.71c-.157-.043-.287-.133-.387-.27-.1-.137-.15-.292-.15-.465v-1.925c0-.332.114-.613.344-.844.23-.231.51-.346.84-.346h4.089c.33 0 .61.115.84.346.229.23.344.512.344.844v1.838h1.937v-1.99c0-.418-.08-.808-.237-1.168-.158-.36-.37-.674-.635-.941-.265-.267-.578-.48-.936-.638-.359-.16-.746-.238-1.163-.238h-4.39c-.402 0-.786.079-1.152.238-.366.158-.682.37-.947.638-.266.267-.477.58-.635.94-.158.361-.237.75-.237 1.17v2.206c0 .577.172 1.089.517 1.536.344.447.789.75 1.334.908l6.005 1.71c.158.043.287.133.388.27.1.137.15.292.15.465v1.926c0 .331-.114.613-.344.843-.23.231-.51.346-.84.346h-4.089c-.33 0-.61-.115-.84-.346-.229-.23-.344-.512-.344-.843v-1.84h-1.937v1.991c0 .404.08.79.237 1.157.158.368.37.686.635.952.265.267.581.48.947.639.366.158.75.238 1.151.238h4.391zM64.487 45.202l.818-2.488h4.95l.84 2.488h3.4l-5.014-15.144H66.08l-4.994 15.144h3.401zm4.692-5.733h-2.798l1.4-4.587 1.398 4.587zm14.701 5.733c.46 0 .894-.09 1.303-.27.409-.18.764-.422 1.065-.725.301-.303.542-.66.721-1.071.18-.411.27-.847.27-1.309v-2.034h-3.23v1.299c0 .245-.082.45-.247.616-.165.166-.37.249-.613.249h-3.014c-.244 0-.448-.083-.613-.249-.165-.166-.248-.371-.248-.616v-6.923c0-.246.083-.451.248-.617.165-.166.37-.249.613-.249h3.014c.243 0 .448.083.613.249.165.166.247.371.247.617v1.298h3.23v-2.034c0-.462-.09-.898-.27-1.309-.18-.41-.42-.768-.721-1.07-.301-.304-.656-.545-1.065-.726-.41-.18-.843-.27-1.303-.27h-4.477c-.473 0-.914.09-1.323.27-.41.18-.765.422-1.066.725-.301.303-.538.66-.71 1.071-.172.411-.258.847-.258 1.309v8.394c0 .462.086.898.258 1.309.172.411.409.768.71 1.07.301.304.657.545 1.066.726.409.18.85.27 1.323.27h4.477zm8.072 0l.818-2.488h4.95l.84 2.488h3.4l-5.014-15.144h-3.401L88.55 45.202h3.4zm4.692-5.733h-2.798l1.4-4.587 1.398 4.587zm14.917 5.733c.459 0 .893-.09 1.302-.27.409-.18.764-.422 1.065-.725.302-.303.542-.66.721-1.071.18-.411.27-.847.27-1.309v-8.394c0-.462-.09-.898-.27-1.309-.18-.41-.42-.768-.72-1.07-.302-.304-.657-.545-1.066-.726-.41-.18-.843-.27-1.302-.27h-7.835v15.144h7.835zm-.732-3.245h-3.875v-8.654h3.875c.244 0 .448.083.613.249.165.166.248.371.248.617v6.923c0 .245-.083.45-.248.616-.165.166-.37.249-.613.249zm16.035 3.245v-3.245h-6.242v-2.704h5.597v-3.246h-5.597v-2.704h6.242v-3.245h-9.47v15.144h9.47zm6.156 0v-8.33l2.368 4.717h3.207l2.39-4.716v8.329h3.228V30.058h-3.444l-3.767 7.55-3.788-7.55h-3.422v15.144h3.228zm20.642 0v-6.404l4.735-8.74h-3.659l-2.69 5.127-2.67-5.127h-3.658l4.713 8.74v6.404h3.229z" transform="translate(-20 -102) translate(20 102.83) translate(0 .006)"/>
                    <g>
                        <path fill-rule="nonzero" d="M27.474.22c5.462 0 10.548 1.607 14.812 4.373l-.806 2.813c-3.968-2.774-8.797-4.402-14.006-4.402-13.514 0-24.47 10.956-24.47 24.47s10.956 24.47 24.47 24.47 24.47-10.956 24.47-24.47c0-4.523-1.227-8.76-3.367-12.394l1.014-3.535c3.232 4.48 5.137 9.982 5.137 15.93 0 15.051-12.202 27.253-27.254 27.253C12.422 54.728.22 42.526.22 27.474.22 12.422 12.422.22 27.474.22z" transform="translate(-20 -102) translate(20 102.83) translate(0 .006) translate(.118 .307)"/>
                        <path d="M27.401 8.858c10.333 0 18.709 8.376 18.709 18.709 0 10.22-8.195 18.526-18.373 18.706l-.336.002c-10.333 0-18.709-8.376-18.709-18.708 0-10.333 8.376-18.71 18.709-18.71zm-7.007 7.715c-.19.92-.152 1.849.085 2.748l-1.194.531c-.894-1.478-2.048-2.369-3.309-2.369-2.837 0-5.137 4.515-5.137 10.084s2.3 10.083 5.137 10.083c1.375 0 2.623-1.059 3.545-2.783l1.11.565c-.248.913-.3 1.86-.126 2.8.7 3.77 4.811 6.176 9.535 5.803 2.57-.408 4.945-1.404 6.982-2.845 2.137-1.864 3.28-4.397 2.815-6.896-.04-.222-.094-.439-.158-.65l1.186-.528c.32.648.7 1.025 1.11 1.025.507 0 .972-.58 1.33-1.541.213-.676.385-1.37.511-2.079.131-.846.205-1.796.205-2.8 0-3.547-.916-6.422-2.047-6.422-.287 0-.561.187-.81.523l-1.585-.705c.03-.111.057-.224.08-.338.556-2.686-.847-5.45-3.403-7.347-1.89-1.186-4.035-2.004-6.334-2.353-4.677-.413-8.775 1.852-9.528 5.494zm8.111 9.452c.48.105.959.181 1.431.23l.04 2.266c-.4.042-.802.104-1.207.187-2.922.595-5.354 2.142-6.829 4.106l-1.376-.702c.352-1.366.55-2.91.55-4.545 0-1.828-.247-3.542-.68-5.02l1.35-.602c1.449 1.918 3.837 3.45 6.721 4.08zm10.217-3.08l1.66.74c-.284 1.102-.455 2.506-.455 4.035 0 1.274.119 2.462.323 3.46l-1.469.653c-1.241-1.73-3.373-2.904-5.877-3.264l-.04-2.361c2.517-.357 4.651-1.53 5.858-3.263z" transform="translate(-20 -102) translate(20 102.83) translate(0 .006) translate(.118 .307) rotate(-16 27.401 27.567)"/>
                    </g>
                </g>
            </g>
        </g>
    </g>
</svg>
