<svg xmlns="http://www.w3.org/2000/svg" width="48" height="48" viewBox="0 0 48 48">
    <defs>
        <filter id="25v00il4pa">
            <feColorMatrix in="SourceGraphic" values="0 0 0 0 1.000000 0 0 0 0 1.000000 0 0 0 0 1.000000 0 0 0 1.000000 0"/>
        </filter>
    </defs>
    <g fill="none" fill-rule="evenodd">
        <g>
            <g>
                <g>
                    <g filter="url(#25v00il4pa)" transform="translate(-270 -164) translate(270 156) translate(0 8)">
                        <g fill="#000" fill-rule="nonzero">
                            <path d="M43.75 8.736C33.034-5.931 9.97-1.127 5.676 16.2L3.103 11.27c-.411-.779-1.376-1.077-2.155-.665-.779.411-1.077 1.376-.665 2.155l4.955 9.393c.34.631 1.062.958 1.76.796.136-.039.27-.087.4-.143l9.432-4.94c.78-.422 1.072-1.397.65-2.178-.423-.781-1.399-1.072-2.18-.65L8.45 18.654c2.39-15.878 23.104-21.144 32.727-8.038 8.852 11.807.072 29.15-14.698 29.023-3.882.007-7.664-1.233-10.787-3.537-.457-.359-1.073-.44-1.608-.212-.534.227-.902.727-.96 1.305-.06.578.202 1.142.68 1.472 3.667 2.713 8.112 4.172 12.675 4.159 17.351.15 27.668-20.22 17.272-34.09z" transform="translate(0 2.454)"/>
                        </g>
                    </g>
                    <text fill="#F1F1F1" font-family="Gotham-Medium, Gotham" font-size="12" font-weight="400" transform="translate(-270 -164) translate(270 156) translate(0 8)">
                        <tspan x="21.28" y="28">10</tspan>
                    </text>
                </g>
            </g>
        </g>
    </g>
</svg>
