<svg xmlns="http://www.w3.org/2000/svg" width="49" height="48" viewBox="0 0 49 48">
    <defs>
        <filter id="lyxecck8da">
            <feColorMatrix in="SourceGraphic" values="0 0 0 0 1.000000 0 0 0 0 1.000000 0 0 0 0 1.000000 0 0 0 1.000000 0"/>
        </filter>
    </defs>
    <g fill="none" fill-rule="evenodd">
        <g>
            <g>
                <g>
                    <g filter="url(#lyxecck8da)" transform="translate(-494 -164) translate(270 156) translate(224 8)">
                        <path fill="#000" fill-rule="nonzero" d="M43.92 11.14C33.161-3.584 10.008 1.24 5.697 18.634l-2.583-4.95c-.413-.782-1.382-1.081-2.164-.668-.781.413-1.08 1.381-.667 2.163l4.974 9.43c.342.634 1.066.961 1.768.8.136-.04.27-.089.4-.145l9.469-4.958c.784-.424 1.076-1.404.652-2.188-.424-.784-1.404-1.076-2.188-.652l-6.878 3.631c2.4-15.94 23.194-21.226 32.855-8.07 8.886 11.853.072 29.264-14.756 29.136-3.897.008-7.693-1.237-10.829-3.55-.459-.36-1.077-.442-1.613-.213-.537.228-.906.73-.965 1.31-.059.58.203 1.146.683 1.478 3.682 2.724 8.144 4.188 12.724 4.175C44 45.514 54.356 25.064 43.92 11.14z" transform="matrix(-1 0 0 1 48.196 0)"/>
                    </g>
                    <text fill="#F1F1F1" font-family="Gotham-Medium, Gotham" font-size="12" font-weight="400" transform="translate(-494 -164) translate(270 156) translate(224 8)">
                        <tspan x="13.28" y="28">10</tspan>
                    </text>
                </g>
            </g>
        </g>
    </g>
</svg>
